<svg xmlns="http://www.w3.org/2000/svg" xmlns:xlink="http://www.w3.org/1999/xlink" version="1.1" width="1000" height="1000" viewBox="0 0 1000 1000" xml:space="preserve">
<desc>Created with Fabric.js 3.5.0</desc>
<defs>
</defs>
<rect x="0" y="0" width="100%" height="100%" fill="rgba(204,204,255,0)"/>
<g transform="matrix(15.2572 0 0 15.2572 584.9173 472.397)" id="233246">
<path style="stroke: none; stroke-width: 1; stroke-dasharray: none; stroke-linecap: butt; stroke-dashoffset: 0; stroke-linejoin: miter; stroke-miterlimit: 4; is-custom-font: none; font-file-url: none; fill: rgb(204,51,51); fill-rule: nonzero; opacity: 1;" transform=" translate(-37.8418, -30.4556)" d="M 41.83 29.16 A 2.24 2.24 0 0 0 41.4 28 a 1.81 1.81 0 0 0 -0.37 -0.41 a 3.27 3.27 0 0 0 -1.15 -0.61 a 4.44 4.44 0 0 0 -0.6 -0.16 a 7.48 7.48 0 0 0 -2.88 0 a 4.44 4.44 0 0 0 -0.6 0.16 a 3.27 3.27 0 0 0 -1.15 0.61 a 1.81 1.81 0 0 0 -0.37 0.41 a 2.24 2.24 0 0 0 -0.43 1.2 a 4.88 4.88 0 0 0 1.4 3.89 a 3.51 3.51 0 0 0 5.18 0 A 4.88 4.88 0 0 0 41.83 29.16 Z m -3.49 1.48 a 1.5 1.5 0 1 1 1.5 -1.5 A 1.5 1.5 0 0 1 38.34 30.64 Z" stroke-linecap="round"/>
</g>
<g transform="matrix(15.2572 0 0 15.2572 783.0807 186.7738)" id="786930">
<path style="stroke: none; stroke-width: 1; stroke-dasharray: none; stroke-linecap: butt; stroke-dashoffset: 0; stroke-linejoin: miter; stroke-miterlimit: 4; is-custom-font: none; font-file-url: none; fill: rgb(204,51,51); fill-rule: nonzero; opacity: 1;" transform=" translate(-50.83, -11.735)" d="M 53.4 13.84 a 17.37 17.37 0 0 0 -6.16 -2.21 l 0.32 -2 a 19.41 19.41 0 0 1 6.86 2.47 Z" stroke-linecap="round"/>
</g>
<g transform="matrix(15.2572 0 0 15.2572 385.9365 186.5449)" id="476635">
<path style="stroke: none; stroke-width: 1; stroke-dasharray: none; stroke-linecap: butt; stroke-dashoffset: 0; stroke-linejoin: miter; stroke-miterlimit: 4; is-custom-font: none; font-file-url: none; fill: rgb(204,51,51); fill-rule: nonzero; opacity: 1;" transform=" translate(-24.8, -11.72)" d="M 22.22 13.75 l -1 -1.74 a 19 19 0 0 1 6.3 -2.26 l 0.19 0 l 0.47 -0.06 l 0.2 2 l -0.34 0 l -0.21 0 A 16.88 16.88 0 0 0 22.22 13.75 Z" stroke-linecap="round"/>
</g>
<g transform="matrix(15.2572 0 0 15.2572 382.7349 146.4836)" id="552647">
<path style="stroke: none; stroke-width: 1; stroke-dasharray: none; stroke-linecap: butt; stroke-dashoffset: 0; stroke-linejoin: miter; stroke-miterlimit: 4; is-custom-font: none; font-file-url: none; fill: rgb(204,51,51); fill-rule: nonzero; opacity: 1;" transform=" translate(-24.5902, -9.0942)" d="M 21.72 13.88 a 1 1 0 0 1 -0.88 -0.53 c -0.08 -0.15 -0.15 -0.31 -0.23 -0.47 a 8.56 8.56 0 0 1 0.68 -8.1 a 1 1 0 0 1 1 -0.46 A 8.55 8.55 0 0 1 28.8 9.23 a 10.72 10.72 0 0 1 0.44 1.13 a 1 1 0 0 1 -1.92 0.58 A 8.48 8.48 0 0 0 27 10 a 6.44 6.44 0 0 0 -4.33 -3.59 a 6.38 6.38 0 0 0 -0.21 5.62 l 0.16 0.34 a 1 1 0 0 1 -0.4 1.35 A 1.07 1.07 0 0 1 21.72 13.88 Z" stroke-linecap="round"/>
</g>
<g transform="matrix(15.2572 0 0 15.2572 584.9067 378.7352)" id="103001">
<path style="stroke: none; stroke-width: 1; stroke-dasharray: none; stroke-linecap: butt; stroke-dashoffset: 0; stroke-linejoin: miter; stroke-miterlimit: 4; is-custom-font: none; font-file-url: none; fill: rgb(204,51,51); fill-rule: nonzero; opacity: 1;" transform=" translate(-37.8411, -24.3166)" d="M 37.85 48.64 a 62.91 62.91 0 0 1 -10.34 -0.86 a 18.84 18.84 0 0 1 -6.1 -2.16 a 19.1 19.1 0 0 1 -9.73 -16.19 c 0 -0.44 0 -0.89 0 -1.34 A 19.07 19.07 0 0 1 16.21 16.2 a 1.35 1.35 0 0 0 0.2 -1.35 l 0 -0.07 C 12.87 6.92 19.25 0.56 19.52 0.3 A 1 1 0 0 1 20.15 0 C 20.53 0 29.54 -0.51 33 7.34 a 2.65 2.65 0 0 0 2.52 1.59 c 1.52 -0.06 3.06 -0.06 4.59 0 a 2.67 2.67 0 0 0 2.48 -1.52 a 0.25 0.25 0 0 0 0 -0.07 C 46.14 -0.51 55.14 0 55.52 0 a 1 1 0 0 1 0.64 0.29 c 0.27 0.26 6.64 6.62 3.14 14.48 l -0.08 0.18 a 1.27 1.27 0 0 0 0.2 1.35 A 19.46 19.46 0 0 1 64 29.13 v 0.29 a 19.08 19.08 0 0 1 -9.73 16.2 a 18.62 18.62 0 0 1 -6.09 2.16 A 63 63 0 0 1 37.85 48.64 Z M 18.22 14 a 3.36 3.36 0 0 1 -0.49 3.51 a 17.09 17.09 0 0 0 -4.05 10.65 c 0 0.42 0 0.83 0 1.24 a 17.09 17.09 0 0 0 8.71 14.5 a 16.69 16.69 0 0 0 5.46 1.92 a 60.15 60.15 0 0 0 20 0 a 16.56 16.56 0 0 0 5.45 -1.92 A 17.08 17.08 0 0 0 62 29.4 v -0.28 h 0 a 17.44 17.44 0 0 0 -4.1 -11.5 a 3.28 3.28 0 0 1 -0.48 -3.52 l 0.08 -0.18 C 60.08 8.13 56.11 3.2 55 2 H 55 c -1.73 0 -7.9 0.41 -10.46 6.12 l 0 0.07 a 4.64 4.64 0 0 1 -4.4 2.74 c -1.48 -0.06 -3 -0.06 -4.43 0 a 4.6 4.6 0 0 1 -4.41 -2.75 C 28.62 2.34 22.3 2 20.66 2 c -1.09 1.2 -5 6.1 -2.49 11.89 l 0 0.09 Z" stroke-linecap="round"/>
</g>
<g transform="matrix(15.2572 0 0 15.2572 786.2845 147.3998)" id="580713">
<path style="stroke: none; stroke-width: 1; stroke-dasharray: none; stroke-linecap: butt; stroke-dashoffset: 0; stroke-linejoin: miter; stroke-miterlimit: 4; is-custom-font: none; font-file-url: none; fill: rgb(204,51,51); fill-rule: nonzero; opacity: 1;" transform=" translate(-51.0399, -9.1543)" d="M 53.91 14 a 1 1 0 0 1 -0.45 -0.1 A 1 1 0 0 1 53 12.53 l 0.23 -0.48 A 6.38 6.38 0 0 0 53 6.45 a 6.47 6.47 0 0 0 -4.33 3.6 c -0.13 0.31 -0.25 0.62 -0.35 0.92 a 1 1 0 1 1 -1.89 -0.66 a 11.23 11.23 0 0 1 0.42 -1.07 a 8.54 8.54 0 0 1 6.47 -4.92 a 1 1 0 0 1 1 0.46 a 8.54 8.54 0 0 1 0.66 8.11 l -0.25 0.54 A 1 1 0 0 1 53.91 14 Z" stroke-linecap="round"/>
</g>
<g transform="matrix(15.2572 0 0 15.2572 729.986 750.7008)" id="18527">
<path style="stroke: none; stroke-width: 1; stroke-dasharray: none; stroke-linecap: butt; stroke-dashoffset: 0; stroke-linejoin: miter; stroke-miterlimit: 4; is-custom-font: none; font-file-url: none; fill: rgb(204,51,51); fill-rule: nonzero; opacity: 1;" transform=" translate(-47.35, -48.6964)" d="M 52.85 53.64 h -10 a 1 1 0 0 1 -1 -1 a 4 4 0 0 0 -4 -4 a 1 1 0 0 1 0 -2 a 59.87 59.87 0 0 0 10 -0.84 a 16.56 16.56 0 0 0 5.45 -1.92 a 1 1 0 0 1 0.72 -0.1 a 5 5 0 0 1 3.83 4.85 v 0 A 5 5 0 0 1 52.85 53.64 Z m -9.1 -2 h 9.1 a 3 3 0 0 0 3 -3 v 0 a 3 3 0 0 0 -2 -2.8 a 18.92 18.92 0 0 1 -5.71 2 q -3 0.49 -6 0.71 A 5.93 5.93 0 0 1 43.75 51.64 Z" stroke-linecap="round"/>
</g>
<g transform="matrix(15.2572 0 0 15.2572 440.2103 750.7023)" id="593297">
<path style="stroke: none; stroke-width: 1; stroke-dasharray: none; stroke-linecap: butt; stroke-dashoffset: 0; stroke-linejoin: miter; stroke-miterlimit: 4; is-custom-font: none; font-file-url: none; fill: rgb(204,51,51); fill-rule: nonzero; opacity: 1;" transform=" translate(-28.3572, -48.6965)" d="M 32.84 53.64 h -10 a 5 5 0 0 1 -1.16 -9.86 a 1 1 0 0 1 0.72 0.1 a 16.69 16.69 0 0 0 5.46 1.92 a 59.78 59.78 0 0 0 10 0.84 a 1 1 0 0 1 0 2 a 4 4 0 0 0 -4 4 A 1 1 0 0 1 32.84 53.64 Z M 21.79 45.83 a 3 3 0 0 0 -1.95 2.8 a 3 3 0 0 0 3 3 h 9.09 a 6.08 6.08 0 0 1 1.59 -3.15 q -3 -0.21 -6 -0.71 A 18.81 18.81 0 0 1 21.79 45.83 Z" stroke-linecap="round"/>
</g>
<g transform="matrix(15.2572 0 0 15.2572 584.8901 810.8687)" id="32669">
<path style="stroke: none; stroke-width: 1; stroke-dasharray: none; stroke-linecap: butt; stroke-dashoffset: 0; stroke-linejoin: miter; stroke-miterlimit: 4; is-custom-font: none; font-file-url: none; fill: rgb(204,51,51); fill-rule: nonzero; opacity: 1;" transform=" translate(-37.84, -52.64)" d="M 37.84 58.64 a 6 6 0 1 1 6 -6 A 6 6 0 0 1 37.84 58.64 Z m 0 -10 a 4 4 0 1 0 4 4 A 4 4 0 0 0 37.84 48.64 Z" stroke-linecap="round"/>
</g>
<g transform="matrix(15.2572 0 0 15.2572 630.0351 552.1489)" id="216262">
<path style="stroke: none; stroke-width: 1; stroke-dasharray: none; stroke-linecap: butt; stroke-dashoffset: 0; stroke-linejoin: miter; stroke-miterlimit: 4; is-custom-font: none; font-file-url: none; fill: rgb(204,51,51); fill-rule: nonzero; opacity: 1;" transform=" translate(-40.799, -35.6827)" d="M 43.84 38.64 c -4.58 0 -6.56 -3.11 -7 -4.76 a 1 1 0 0 1 1.93 -0.49 c 0 0.15 0.93 3.25 5 3.25 a 1 1 0 0 1 0 2 Z" stroke-linecap="round"/>
</g>
<g transform="matrix(15.2572 0 0 15.2572 538.8845 551.5944)" id="953970">
<path style="stroke: none; stroke-width: 1; stroke-dasharray: none; stroke-linecap: butt; stroke-dashoffset: 0; stroke-linejoin: miter; stroke-miterlimit: 4; is-custom-font: none; font-file-url: none; fill: rgb(204,51,51); fill-rule: nonzero; opacity: 1;" transform=" translate(-34.8247, -35.6464)" d="M 31.84 38.64 a 1 1 0 0 1 0 -2 c 4.17 0 5 -3.21 5 -3.24 a 1 1 0 0 1 1.21 -0.73 a 1 1 0 0 1 0.73 1.21 A 6.86 6.86 0 0 1 31.84 38.64 Z" stroke-linecap="round"/>
</g>
<g transform="matrix(15.2572 0 0 15.2572 409.4325 349.339)" id="949885">
<path style="stroke: none; stroke-width: 1; stroke-dasharray: none; stroke-linecap: butt; stroke-dashoffset: 0; stroke-linejoin: miter; stroke-miterlimit: 4; is-custom-font: none; font-file-url: none; fill: rgb(204,51,51); fill-rule: nonzero; opacity: 1;" transform=" translate(-26.34, -22.39)" d="M 30.84 25.64 a 1 1 0 0 1 -1 -1 a 3.5 3.5 0 0 0 -7 0 a 1 1 0 0 1 -2 0 a 5.5 5.5 0 0 1 11 0 A 1 1 0 0 1 30.84 25.64 Z" stroke-linecap="round"/>
</g>
<g transform="matrix(15.2572 0 0 15.2572 760.3476 349.339)" id="14928">
<path style="stroke: none; stroke-width: 1; stroke-dasharray: none; stroke-linecap: butt; stroke-dashoffset: 0; stroke-linejoin: miter; stroke-miterlimit: 4; is-custom-font: none; font-file-url: none; fill: rgb(204,51,51); fill-rule: nonzero; opacity: 1;" transform=" translate(-49.34, -22.39)" d="M 53.84 25.64 a 1 1 0 0 1 -1 -1 a 3.5 3.5 0 0 0 -7 0 a 1 1 0 0 1 -2 0 a 5.5 5.5 0 0 1 11 0 A 1 1 0 0 1 53.84 25.64 Z" stroke-linecap="round"/>
</g>
<g transform="matrix(15.2572 0 0 15.2572 371.2896 459.9535)" id="806495">
<path style="stroke: none; stroke-width: 1; stroke-dasharray: none; stroke-linecap: butt; stroke-dashoffset: 0; stroke-linejoin: miter; stroke-miterlimit: 4; is-custom-font: none; font-file-url: none; fill: rgb(204,51,51); fill-rule: nonzero; opacity: 1;" transform=" translate(-23.84, -29.64)" d="M 27.84 30.64 h -8 a 1 1 0 0 1 0 -2 h 8 a 1 1 0 1 1 0 2 Z" stroke-linecap="round"/>
</g>
<g transform="matrix(15.2572 0 0 15.2572 370.7344 513.3047)" id="233300">
<path style="stroke: none; stroke-width: 1; stroke-dasharray: none; stroke-linecap: butt; stroke-dashoffset: 0; stroke-linejoin: miter; stroke-miterlimit: 4; is-custom-font: none; font-file-url: none; fill: rgb(204,51,51); fill-rule: nonzero; opacity: 1;" transform=" translate(-23.8036, -33.1368)" d="M 19.83 34.64 a 1 1 0 0 1 -0.12 -2 l 8 -1 a 1 1 0 0 1 1.12 0.87 A 1 1 0 0 1 28 33.63 l -8 1 Z" stroke-linecap="round"/>
</g>
<g transform="matrix(15.2572 0 0 15.2572 378.5863 566.6494)" id="942462">
<path style="stroke: none; stroke-width: 1; stroke-dasharray: none; stroke-linecap: butt; stroke-dashoffset: 0; stroke-linejoin: miter; stroke-miterlimit: 4; is-custom-font: none; font-file-url: none; fill: rgb(204,51,51); fill-rule: nonzero; opacity: 1;" transform=" translate(-24.3182, -36.6331)" d="M 20.83 38.64 a 1 1 0 0 1 -1 -0.72 a 1 1 0 0 1 0.69 -1.24 l 7 -2 a 1 1 0 1 1 0.55 1.92 l -7 2 A 0.86 0.86 0 0 1 20.83 38.64 Z" stroke-linecap="round"/>
</g>
<g transform="matrix(15.2572 0 0 15.2572 798.4905 459.9535)" id="874354">
<path style="stroke: none; stroke-width: 1; stroke-dasharray: none; stroke-linecap: butt; stroke-dashoffset: 0; stroke-linejoin: miter; stroke-miterlimit: 4; is-custom-font: none; font-file-url: none; fill: rgb(204,51,51); fill-rule: nonzero; opacity: 1;" transform=" translate(-51.84, -29.64)" d="M 55.84 30.64 h -8 a 1 1 0 0 1 0 -2 h 8 a 1 1 0 0 1 0 2 Z" stroke-linecap="round"/>
</g>
<g transform="matrix(15.2572 0 0 15.2572 798.3694 513.2933)" id="513799">
<path style="stroke: none; stroke-width: 1; stroke-dasharray: none; stroke-linecap: butt; stroke-dashoffset: 0; stroke-linejoin: miter; stroke-miterlimit: 4; is-custom-font: none; font-file-url: none; fill: rgb(204,51,51); fill-rule: nonzero; opacity: 1;" transform=" translate(-51.8321, -33.1361)" d="M 55.84 34.64 h -0.13 l -8 -1 a 1 1 0 1 1 0.25 -2 l 8 1 a 1 1 0 0 1 0.87 1.11 A 1 1 0 0 1 55.84 34.64 Z" stroke-linecap="round"/>
</g>
<g transform="matrix(15.2572 0 0 15.2572 790.4309 567.0321)" id="373405">
<path style="stroke: none; stroke-width: 1; stroke-dasharray: none; stroke-linecap: butt; stroke-dashoffset: 0; stroke-linejoin: miter; stroke-miterlimit: 4; is-custom-font: none; font-file-url: none; fill: rgb(204,51,51); fill-rule: nonzero; opacity: 1;" transform=" translate(-51.3118, -36.6582)" d="M 54.84 38.64 a 0.9 0.9 0 0 1 -0.28 0 l -7 -2 a 1 1 0 1 1 0.55 -1.92 l 7 2 a 1 1 0 0 1 0.69 1.24 A 1 1 0 0 1 54.84 38.64 Z" stroke-linecap="round"/>
</g>
<g transform="matrix(15.2572 0 0 15.2572 323.8971 699.8592)" id="739162">
<path style="stroke: none; stroke-width: 1; stroke-dasharray: none; stroke-linecap: butt; stroke-dashoffset: 0; stroke-linejoin: miter; stroke-miterlimit: 4; is-custom-font: none; font-file-url: none; fill: rgb(204,51,51); fill-rule: nonzero; opacity: 1;" transform=" translate(-20.7338, -45.3641)" d="M 19.79 47.05 a 1 1 0 0 1 -0.63 -1.78 c 0.49 -0.39 1 -0.76 1.51 -1.12 h 0 l 0 0 c 0.16 -0.12 0.32 -0.22 0.48 -0.32 a 1 1 0 1 1 1.06 1.7 c -0.14 0.09 -0.28 0.17 -0.41 0.27 l -0.08 0 c -0.47 0.33 -0.91 0.65 -1.35 1 A 1 1 0 0 1 19.79 47.05 Z" stroke-linecap="round"/>
</g>
<g transform="matrix(15.2572 0 0 15.2572 164.6876 915.4191)" id="942454">
<path style="stroke: none; stroke-width: 1; stroke-dasharray: none; stroke-linecap: butt; stroke-dashoffset: 0; stroke-linejoin: miter; stroke-miterlimit: 4; is-custom-font: none; font-file-url: none; fill: rgb(204,51,51); fill-rule: nonzero; opacity: 1;" transform=" translate(-10.2987, -59.4926)" d="M 9 64 a 1 1 0 0 1 -0.24 0 A 1 1 0 0 1 8 62.76 a 32.86 32.86 0 0 1 2.74 -7.24 a 1 1 0 0 1 1.78 0.92 a 31 31 0 0 0 -2.58 6.8 A 1 1 0 0 1 9 64 Z" stroke-linecap="round"/>
</g>
<g transform="matrix(15.2572 0 0 15.2572 921.2259 813.7362)" id="120141">
<path style="stroke: none; stroke-width: 1; stroke-dasharray: none; stroke-linecap: butt; stroke-dashoffset: 0; stroke-linejoin: miter; stroke-miterlimit: 4; is-custom-font: none; font-file-url: none; fill: rgb(204,51,51); fill-rule: nonzero; opacity: 1;" transform=" translate(-59.8844, -52.828)" d="M 63 58.28 a 1 1 0 0 1 -0.91 -0.58 a 30 30 0 0 0 -6 -8.61 a 1 1 0 0 1 1.42 -1.42 a 32 32 0 0 1 6.37 9.19 a 1 1 0 0 1 -0.49 1.33 A 1.06 1.06 0 0 1 63 58.28 Z" stroke-linecap="round"/>
</g>
<g transform="matrix(15.2572 0 0 15.2572 122.5732 569.3321)" id="235841">
<path style="stroke: none; stroke-width: 1; stroke-dasharray: none; stroke-linecap: butt; stroke-dashoffset: 0; stroke-linejoin: miter; stroke-miterlimit: 4; is-custom-font: none; font-file-url: none; fill: rgb(204,51,51); fill-rule: nonzero; opacity: 1;" transform=" translate(-7.5384, -36.8089)" d="M 11.63 57 a 1 1 0 0 1 -0.92 -0.61 C 8 49.87 -0.84 28.11 0.07 20.88 a 1 1 0 0 1 0.15 -0.42 c 2.19 -3.38 5.9 -4.54 11 -3.44 a 1 1 0 0 1 0.4 0.19 a 18.77 18.77 0 0 1 3.26 3.67 a 1 1 0 0 1 -1.62 1.18 a 19.62 19.62 0 0 0 -2.7 -3.13 c -4.08 -0.82 -6.89 0 -8.58 2.42 c -0.49 5.59 5.33 21.87 10.52 34.24 A 1 1 0 0 1 12 56.9 A 0.91 0.91 0 0 1 11.63 57 Z" stroke-linecap="round"/>
</g>
<g transform="matrix(15.2572 0 0 15.2572 83.8885 396.789)" id="915448">
<path style="stroke: none; stroke-width: 1; stroke-dasharray: none; stroke-linecap: butt; stroke-dashoffset: 0; stroke-linejoin: miter; stroke-miterlimit: 4; is-custom-font: none; font-file-url: none; fill: rgb(204,51,51); fill-rule: nonzero; opacity: 1;" transform=" translate(-5.0029, -25.5)" d="M 6 29 a 1 1 0 0 1 -0.71 -0.29 A 8.84 8.84 0 0 1 3 23 a 1 1 0 0 1 2 0 a 6.86 6.86 0 0 0 1.71 4.29 a 1 1 0 0 1 0 1.42 A 1 1 0 0 1 6 29 Z M 5 23 H 5 Z" stroke-linecap="round"/>
</g>
<g transform="matrix(15.2572 0 0 15.2572 144.8283 366.277)" id="806288">
<path style="stroke: none; stroke-width: 1; stroke-dasharray: none; stroke-linecap: butt; stroke-dashoffset: 0; stroke-linejoin: miter; stroke-miterlimit: 4; is-custom-font: none; font-file-url: none; fill: rgb(204,51,51); fill-rule: nonzero; opacity: 1;" transform=" translate(-8.9971, -23.5002)" d="M 10 27 a 1 1 0 0 1 -0.83 -0.45 C 7.06 23.39 7 21.24 7 21 a 1 1 0 0 1 2 0 a 9.57 9.57 0 0 0 1.83 4.46 a 1 1 0 0 1 -0.28 1.38 A 0.94 0.94 0 0 1 10 27 Z M 9 21 H 9 Z" stroke-linecap="round"/>
</g>
<g transform="matrix(15.2572 0 0 15.2572 556.8174 925.2974)" id="61749">
<path style="stroke: none; stroke-width: 1; stroke-dasharray: none; stroke-linecap: butt; stroke-dashoffset: 0; stroke-linejoin: miter; stroke-miterlimit: 4; is-custom-font: none; font-file-url: none; fill: rgb(204,51,51); fill-rule: nonzero; opacity: 1;" transform=" translate(-36, -60.14)" d="M 63 64 H 9 a 1 1 0 0 1 0 -2 H 62 V 57.28 a 1 1 0 0 1 2 0 V 63 A 1 1 0 0 1 63 64 Z" stroke-linecap="round"/>
</g>
<g transform="matrix(15.2572 0 0 15.2572 584.9173 472.397)" id="190248">
<path style="stroke: none; stroke-width: 1; stroke-dasharray: none; stroke-linecap: butt; stroke-dashoffset: 0; stroke-linejoin: miter; stroke-miterlimit: 4; is-custom-font: none; font-file-url: none; fill: rgb(204,51,51); fill-rule: nonzero; opacity: 1;" transform=" translate(-37.8418, -30.4556)" d="M 41.83 29.16 A 2.24 2.24 0 0 0 41.4 28 a 1.81 1.81 0 0 0 -0.37 -0.41 a 3.27 3.27 0 0 0 -1.15 -0.61 a 4.44 4.44 0 0 0 -0.6 -0.16 a 7.48 7.48 0 0 0 -2.88 0 a 4.44 4.44 0 0 0 -0.6 0.16 a 3.27 3.27 0 0 0 -1.15 0.61 a 1.81 1.81 0 0 0 -0.37 0.41 a 2.24 2.24 0 0 0 -0.43 1.2 a 4.88 4.88 0 0 0 1.4 3.89 a 3.51 3.51 0 0 0 5.18 0 A 4.88 4.88 0 0 0 41.83 29.16 Z m -3.49 1.48 a 1.5 1.5 0 1 1 1.5 -1.5 A 1.5 1.5 0 0 1 38.34 30.64 Z" stroke-linecap="round"/>
</g>
<g transform="matrix(15.2572 0 0 15.2572 783.0807 186.7738)" id="832924">
<path style="stroke: none; stroke-width: 1; stroke-dasharray: none; stroke-linecap: butt; stroke-dashoffset: 0; stroke-linejoin: miter; stroke-miterlimit: 4; is-custom-font: none; font-file-url: none; fill: rgb(204,51,51); fill-rule: nonzero; opacity: 1;" transform=" translate(-50.83, -11.735)" d="M 53.4 13.84 a 17.37 17.37 0 0 0 -6.16 -2.21 l 0.32 -2 a 19.41 19.41 0 0 1 6.86 2.47 Z" stroke-linecap="round"/>
</g>
<g transform="matrix(15.2572 0 0 15.2572 385.9365 186.5449)" id="644242">
<path style="stroke: none; stroke-width: 1; stroke-dasharray: none; stroke-linecap: butt; stroke-dashoffset: 0; stroke-linejoin: miter; stroke-miterlimit: 4; is-custom-font: none; font-file-url: none; fill: rgb(204,51,51); fill-rule: nonzero; opacity: 1;" transform=" translate(-24.8, -11.72)" d="M 22.22 13.75 l -1 -1.74 a 19 19 0 0 1 6.3 -2.26 l 0.19 0 l 0.47 -0.06 l 0.2 2 l -0.34 0 l -0.21 0 A 16.88 16.88 0 0 0 22.22 13.75 Z" stroke-linecap="round"/>
</g>
<g transform="matrix(15.2572 0 0 15.2572 382.7349 146.4836)" id="13980">
<path style="stroke: none; stroke-width: 1; stroke-dasharray: none; stroke-linecap: butt; stroke-dashoffset: 0; stroke-linejoin: miter; stroke-miterlimit: 4; is-custom-font: none; font-file-url: none; fill: rgb(204,51,51); fill-rule: nonzero; opacity: 1;" transform=" translate(-24.5902, -9.0942)" d="M 21.72 13.88 a 1 1 0 0 1 -0.88 -0.53 c -0.08 -0.15 -0.15 -0.31 -0.23 -0.47 a 8.56 8.56 0 0 1 0.68 -8.1 a 1 1 0 0 1 1 -0.46 A 8.55 8.55 0 0 1 28.8 9.23 a 10.72 10.72 0 0 1 0.44 1.13 a 1 1 0 0 1 -1.92 0.58 A 8.48 8.48 0 0 0 27 10 a 6.44 6.44 0 0 0 -4.33 -3.59 a 6.38 6.38 0 0 0 -0.21 5.62 l 0.16 0.34 a 1 1 0 0 1 -0.4 1.35 A 1.07 1.07 0 0 1 21.72 13.88 Z" stroke-linecap="round"/>
</g>
<g transform="matrix(15.2572 0 0 15.2572 584.9067 378.7352)" id="361820">
<path style="stroke: none; stroke-width: 1; stroke-dasharray: none; stroke-linecap: butt; stroke-dashoffset: 0; stroke-linejoin: miter; stroke-miterlimit: 4; is-custom-font: none; font-file-url: none; fill: rgb(204,51,51); fill-rule: nonzero; opacity: 1;" transform=" translate(-37.8411, -24.3166)" d="M 37.85 48.64 a 62.91 62.91 0 0 1 -10.34 -0.86 a 18.84 18.84 0 0 1 -6.1 -2.16 a 19.1 19.1 0 0 1 -9.73 -16.19 c 0 -0.44 0 -0.89 0 -1.34 A 19.07 19.07 0 0 1 16.21 16.2 a 1.35 1.35 0 0 0 0.2 -1.35 l 0 -0.07 C 12.87 6.92 19.25 0.56 19.52 0.3 A 1 1 0 0 1 20.15 0 C 20.53 0 29.54 -0.51 33 7.34 a 2.65 2.65 0 0 0 2.52 1.59 c 1.52 -0.06 3.06 -0.06 4.59 0 a 2.67 2.67 0 0 0 2.48 -1.52 a 0.25 0.25 0 0 0 0 -0.07 C 46.14 -0.51 55.14 0 55.52 0 a 1 1 0 0 1 0.64 0.29 c 0.27 0.26 6.64 6.62 3.14 14.48 l -0.08 0.18 a 1.27 1.27 0 0 0 0.2 1.35 A 19.46 19.46 0 0 1 64 29.13 v 0.29 a 19.08 19.08 0 0 1 -9.73 16.2 a 18.62 18.62 0 0 1 -6.09 2.16 A 63 63 0 0 1 37.85 48.64 Z M 18.22 14 a 3.36 3.36 0 0 1 -0.49 3.51 a 17.09 17.09 0 0 0 -4.05 10.65 c 0 0.42 0 0.83 0 1.24 a 17.09 17.09 0 0 0 8.71 14.5 a 16.69 16.69 0 0 0 5.46 1.92 a 60.15 60.15 0 0 0 20 0 a 16.56 16.56 0 0 0 5.45 -1.92 A 17.08 17.08 0 0 0 62 29.4 v -0.28 h 0 a 17.44 17.44 0 0 0 -4.1 -11.5 a 3.28 3.28 0 0 1 -0.48 -3.52 l 0.08 -0.18 C 60.08 8.13 56.11 3.2 55 2 H 55 c -1.73 0 -7.9 0.41 -10.46 6.12 l 0 0.07 a 4.64 4.64 0 0 1 -4.4 2.74 c -1.48 -0.06 -3 -0.06 -4.43 0 a 4.6 4.6 0 0 1 -4.41 -2.75 C 28.62 2.34 22.3 2 20.66 2 c -1.09 1.2 -5 6.1 -2.49 11.89 l 0 0.09 Z" stroke-linecap="round"/>
</g>
<g transform="matrix(15.2572 0 0 15.2572 786.2845 147.3998)" id="5684">
<path style="stroke: none; stroke-width: 1; stroke-dasharray: none; stroke-linecap: butt; stroke-dashoffset: 0; stroke-linejoin: miter; stroke-miterlimit: 4; is-custom-font: none; font-file-url: none; fill: rgb(204,51,51); fill-rule: nonzero; opacity: 1;" transform=" translate(-51.0399, -9.1543)" d="M 53.91 14 a 1 1 0 0 1 -0.45 -0.1 A 1 1 0 0 1 53 12.53 l 0.23 -0.48 A 6.38 6.38 0 0 0 53 6.45 a 6.47 6.47 0 0 0 -4.33 3.6 c -0.13 0.31 -0.25 0.62 -0.35 0.92 a 1 1 0 1 1 -1.89 -0.66 a 11.23 11.23 0 0 1 0.42 -1.07 a 8.54 8.54 0 0 1 6.47 -4.92 a 1 1 0 0 1 1 0.46 a 8.54 8.54 0 0 1 0.66 8.11 l -0.25 0.54 A 1 1 0 0 1 53.91 14 Z" stroke-linecap="round"/>
</g>
<g transform="matrix(15.2572 0 0 15.2572 729.986 750.7008)" id="789979">
<path style="stroke: none; stroke-width: 1; stroke-dasharray: none; stroke-linecap: butt; stroke-dashoffset: 0; stroke-linejoin: miter; stroke-miterlimit: 4; is-custom-font: none; font-file-url: none; fill: rgb(204,51,51); fill-rule: nonzero; opacity: 1;" transform=" translate(-47.35, -48.6964)" d="M 52.85 53.64 h -10 a 1 1 0 0 1 -1 -1 a 4 4 0 0 0 -4 -4 a 1 1 0 0 1 0 -2 a 59.87 59.87 0 0 0 10 -0.84 a 16.56 16.56 0 0 0 5.45 -1.92 a 1 1 0 0 1 0.72 -0.1 a 5 5 0 0 1 3.83 4.85 v 0 A 5 5 0 0 1 52.85 53.64 Z m -9.1 -2 h 9.1 a 3 3 0 0 0 3 -3 v 0 a 3 3 0 0 0 -2 -2.8 a 18.92 18.92 0 0 1 -5.71 2 q -3 0.49 -6 0.71 A 5.93 5.93 0 0 1 43.75 51.64 Z" stroke-linecap="round"/>
</g>
<g transform="matrix(15.2572 0 0 15.2572 440.2103 750.7023)" id="966102">
<path style="stroke: none; stroke-width: 1; stroke-dasharray: none; stroke-linecap: butt; stroke-dashoffset: 0; stroke-linejoin: miter; stroke-miterlimit: 4; is-custom-font: none; font-file-url: none; fill: rgb(204,51,51); fill-rule: nonzero; opacity: 1;" transform=" translate(-28.3572, -48.6965)" d="M 32.84 53.64 h -10 a 5 5 0 0 1 -1.16 -9.86 a 1 1 0 0 1 0.72 0.1 a 16.69 16.69 0 0 0 5.46 1.92 a 59.78 59.78 0 0 0 10 0.84 a 1 1 0 0 1 0 2 a 4 4 0 0 0 -4 4 A 1 1 0 0 1 32.84 53.64 Z M 21.79 45.83 a 3 3 0 0 0 -1.95 2.8 a 3 3 0 0 0 3 3 h 9.09 a 6.08 6.08 0 0 1 1.59 -3.15 q -3 -0.21 -6 -0.71 A 18.81 18.81 0 0 1 21.79 45.83 Z" stroke-linecap="round"/>
</g>
<g transform="matrix(15.2572 0 0 15.2572 584.8901 810.8687)" id="926129">
<path style="stroke: none; stroke-width: 1; stroke-dasharray: none; stroke-linecap: butt; stroke-dashoffset: 0; stroke-linejoin: miter; stroke-miterlimit: 4; is-custom-font: none; font-file-url: none; fill: rgb(204,51,51); fill-rule: nonzero; opacity: 1;" transform=" translate(-37.84, -52.64)" d="M 37.84 58.64 a 6 6 0 1 1 6 -6 A 6 6 0 0 1 37.84 58.64 Z m 0 -10 a 4 4 0 1 0 4 4 A 4 4 0 0 0 37.84 48.64 Z" stroke-linecap="round"/>
</g>
<g transform="matrix(15.2572 0 0 15.2572 630.0351 552.1489)" id="230093">
<path style="stroke: none; stroke-width: 1; stroke-dasharray: none; stroke-linecap: butt; stroke-dashoffset: 0; stroke-linejoin: miter; stroke-miterlimit: 4; is-custom-font: none; font-file-url: none; fill: rgb(204,51,51); fill-rule: nonzero; opacity: 1;" transform=" translate(-40.799, -35.6827)" d="M 43.84 38.64 c -4.58 0 -6.56 -3.11 -7 -4.76 a 1 1 0 0 1 1.93 -0.49 c 0 0.15 0.93 3.25 5 3.25 a 1 1 0 0 1 0 2 Z" stroke-linecap="round"/>
</g>
<g transform="matrix(15.2572 0 0 15.2572 538.8845 551.5944)" id="100587">
<path style="stroke: none; stroke-width: 1; stroke-dasharray: none; stroke-linecap: butt; stroke-dashoffset: 0; stroke-linejoin: miter; stroke-miterlimit: 4; is-custom-font: none; font-file-url: none; fill: rgb(204,51,51); fill-rule: nonzero; opacity: 1;" transform=" translate(-34.8247, -35.6464)" d="M 31.84 38.64 a 1 1 0 0 1 0 -2 c 4.17 0 5 -3.21 5 -3.24 a 1 1 0 0 1 1.21 -0.73 a 1 1 0 0 1 0.73 1.21 A 6.86 6.86 0 0 1 31.84 38.64 Z" stroke-linecap="round"/>
</g>
<g transform="matrix(15.2572 0 0 15.2572 409.4325 349.339)" id="269994">
<path style="stroke: none; stroke-width: 1; stroke-dasharray: none; stroke-linecap: butt; stroke-dashoffset: 0; stroke-linejoin: miter; stroke-miterlimit: 4; is-custom-font: none; font-file-url: none; fill: rgb(204,51,51); fill-rule: nonzero; opacity: 1;" transform=" translate(-26.34, -22.39)" d="M 30.84 25.64 a 1 1 0 0 1 -1 -1 a 3.5 3.5 0 0 0 -7 0 a 1 1 0 0 1 -2 0 a 5.5 5.5 0 0 1 11 0 A 1 1 0 0 1 30.84 25.64 Z" stroke-linecap="round"/>
</g>
<g transform="matrix(15.2572 0 0 15.2572 760.3476 349.339)" id="424744">
<path style="stroke: none; stroke-width: 1; stroke-dasharray: none; stroke-linecap: butt; stroke-dashoffset: 0; stroke-linejoin: miter; stroke-miterlimit: 4; is-custom-font: none; font-file-url: none; fill: rgb(204,51,51); fill-rule: nonzero; opacity: 1;" transform=" translate(-49.34, -22.39)" d="M 53.84 25.64 a 1 1 0 0 1 -1 -1 a 3.5 3.5 0 0 0 -7 0 a 1 1 0 0 1 -2 0 a 5.5 5.5 0 0 1 11 0 A 1 1 0 0 1 53.84 25.64 Z" stroke-linecap="round"/>
</g>
<g transform="matrix(15.2572 0 0 15.2572 371.2896 459.9535)" id="936457">
<path style="stroke: none; stroke-width: 1; stroke-dasharray: none; stroke-linecap: butt; stroke-dashoffset: 0; stroke-linejoin: miter; stroke-miterlimit: 4; is-custom-font: none; font-file-url: none; fill: rgb(204,51,51); fill-rule: nonzero; opacity: 1;" transform=" translate(-23.84, -29.64)" d="M 27.84 30.64 h -8 a 1 1 0 0 1 0 -2 h 8 a 1 1 0 1 1 0 2 Z" stroke-linecap="round"/>
</g>
<g transform="matrix(15.2572 0 0 15.2572 370.7344 513.3047)" id="995546">
<path style="stroke: none; stroke-width: 1; stroke-dasharray: none; stroke-linecap: butt; stroke-dashoffset: 0; stroke-linejoin: miter; stroke-miterlimit: 4; is-custom-font: none; font-file-url: none; fill: rgb(204,51,51); fill-rule: nonzero; opacity: 1;" transform=" translate(-23.8036, -33.1368)" d="M 19.83 34.64 a 1 1 0 0 1 -0.12 -2 l 8 -1 a 1 1 0 0 1 1.12 0.87 A 1 1 0 0 1 28 33.63 l -8 1 Z" stroke-linecap="round"/>
</g>
<g transform="matrix(15.2572 0 0 15.2572 378.5863 566.6494)" id="609772">
<path style="stroke: none; stroke-width: 1; stroke-dasharray: none; stroke-linecap: butt; stroke-dashoffset: 0; stroke-linejoin: miter; stroke-miterlimit: 4; is-custom-font: none; font-file-url: none; fill: rgb(204,51,51); fill-rule: nonzero; opacity: 1;" transform=" translate(-24.3182, -36.6331)" d="M 20.83 38.64 a 1 1 0 0 1 -1 -0.72 a 1 1 0 0 1 0.69 -1.24 l 7 -2 a 1 1 0 1 1 0.55 1.92 l -7 2 A 0.86 0.86 0 0 1 20.83 38.64 Z" stroke-linecap="round"/>
</g>
<g transform="matrix(15.2572 0 0 15.2572 798.4905 459.9535)" id="802391">
<path style="stroke: none; stroke-width: 1; stroke-dasharray: none; stroke-linecap: butt; stroke-dashoffset: 0; stroke-linejoin: miter; stroke-miterlimit: 4; is-custom-font: none; font-file-url: none; fill: rgb(204,51,51); fill-rule: nonzero; opacity: 1;" transform=" translate(-51.84, -29.64)" d="M 55.84 30.64 h -8 a 1 1 0 0 1 0 -2 h 8 a 1 1 0 0 1 0 2 Z" stroke-linecap="round"/>
</g>
<g transform="matrix(15.2572 0 0 15.2572 798.3694 513.2933)" id="171345">
<path style="stroke: none; stroke-width: 1; stroke-dasharray: none; stroke-linecap: butt; stroke-dashoffset: 0; stroke-linejoin: miter; stroke-miterlimit: 4; is-custom-font: none; font-file-url: none; fill: rgb(204,51,51); fill-rule: nonzero; opacity: 1;" transform=" translate(-51.8321, -33.1361)" d="M 55.84 34.64 h -0.13 l -8 -1 a 1 1 0 1 1 0.25 -2 l 8 1 a 1 1 0 0 1 0.87 1.11 A 1 1 0 0 1 55.84 34.64 Z" stroke-linecap="round"/>
</g>
<g transform="matrix(15.2572 0 0 15.2572 790.4309 567.0321)" id="901278">
<path style="stroke: none; stroke-width: 1; stroke-dasharray: none; stroke-linecap: butt; stroke-dashoffset: 0; stroke-linejoin: miter; stroke-miterlimit: 4; is-custom-font: none; font-file-url: none; fill: rgb(204,51,51); fill-rule: nonzero; opacity: 1;" transform=" translate(-51.3118, -36.6582)" d="M 54.84 38.64 a 0.9 0.9 0 0 1 -0.28 0 l -7 -2 a 1 1 0 1 1 0.55 -1.92 l 7 2 a 1 1 0 0 1 0.69 1.24 A 1 1 0 0 1 54.84 38.64 Z" stroke-linecap="round"/>
</g>
<g transform="matrix(15.2572 0 0 15.2572 323.8971 699.8592)" id="594656">
<path style="stroke: none; stroke-width: 1; stroke-dasharray: none; stroke-linecap: butt; stroke-dashoffset: 0; stroke-linejoin: miter; stroke-miterlimit: 4; is-custom-font: none; font-file-url: none; fill: rgb(204,51,51); fill-rule: nonzero; opacity: 1;" transform=" translate(-20.7338, -45.3641)" d="M 19.79 47.05 a 1 1 0 0 1 -0.63 -1.78 c 0.49 -0.39 1 -0.76 1.51 -1.12 h 0 l 0 0 c 0.16 -0.12 0.32 -0.22 0.48 -0.32 a 1 1 0 1 1 1.06 1.7 c -0.14 0.09 -0.28 0.17 -0.41 0.27 l -0.08 0 c -0.47 0.33 -0.91 0.65 -1.35 1 A 1 1 0 0 1 19.79 47.05 Z" stroke-linecap="round"/>
</g>
<g transform="matrix(15.2572 0 0 15.2572 164.6876 915.4191)" id="766263">
<path style="stroke: none; stroke-width: 1; stroke-dasharray: none; stroke-linecap: butt; stroke-dashoffset: 0; stroke-linejoin: miter; stroke-miterlimit: 4; is-custom-font: none; font-file-url: none; fill: rgb(204,51,51); fill-rule: nonzero; opacity: 1;" transform=" translate(-10.2987, -59.4926)" d="M 9 64 a 1 1 0 0 1 -0.24 0 A 1 1 0 0 1 8 62.76 a 32.86 32.86 0 0 1 2.74 -7.24 a 1 1 0 0 1 1.78 0.92 a 31 31 0 0 0 -2.58 6.8 A 1 1 0 0 1 9 64 Z" stroke-linecap="round"/>
</g>
<g transform="matrix(15.2572 0 0 15.2572 921.2259 813.7362)" id="844651">
<path style="stroke: none; stroke-width: 1; stroke-dasharray: none; stroke-linecap: butt; stroke-dashoffset: 0; stroke-linejoin: miter; stroke-miterlimit: 4; is-custom-font: none; font-file-url: none; fill: rgb(204,51,51); fill-rule: nonzero; opacity: 1;" transform=" translate(-59.8844, -52.828)" d="M 63 58.28 a 1 1 0 0 1 -0.91 -0.58 a 30 30 0 0 0 -6 -8.61 a 1 1 0 0 1 1.42 -1.42 a 32 32 0 0 1 6.37 9.19 a 1 1 0 0 1 -0.49 1.33 A 1.06 1.06 0 0 1 63 58.28 Z" stroke-linecap="round"/>
</g>
<g transform="matrix(15.2572 0 0 15.2572 122.5732 569.3321)" id="44611">
<path style="stroke: none; stroke-width: 1; stroke-dasharray: none; stroke-linecap: butt; stroke-dashoffset: 0; stroke-linejoin: miter; stroke-miterlimit: 4; is-custom-font: none; font-file-url: none; fill: rgb(204,51,51); fill-rule: nonzero; opacity: 1;" transform=" translate(-7.5384, -36.8089)" d="M 11.63 57 a 1 1 0 0 1 -0.92 -0.61 C 8 49.87 -0.84 28.11 0.07 20.88 a 1 1 0 0 1 0.15 -0.42 c 2.19 -3.38 5.9 -4.54 11 -3.44 a 1 1 0 0 1 0.4 0.19 a 18.77 18.77 0 0 1 3.26 3.67 a 1 1 0 0 1 -1.62 1.18 a 19.62 19.62 0 0 0 -2.7 -3.13 c -4.08 -0.82 -6.89 0 -8.58 2.42 c -0.49 5.59 5.33 21.87 10.52 34.24 A 1 1 0 0 1 12 56.9 A 0.91 0.91 0 0 1 11.63 57 Z" stroke-linecap="round"/>
</g>
<g transform="matrix(15.2572 0 0 15.2572 83.8885 396.789)" id="840500">
<path style="stroke: none; stroke-width: 1; stroke-dasharray: none; stroke-linecap: butt; stroke-dashoffset: 0; stroke-linejoin: miter; stroke-miterlimit: 4; is-custom-font: none; font-file-url: none; fill: rgb(204,51,51); fill-rule: nonzero; opacity: 1;" transform=" translate(-5.0029, -25.5)" d="M 6 29 a 1 1 0 0 1 -0.71 -0.29 A 8.84 8.84 0 0 1 3 23 a 1 1 0 0 1 2 0 a 6.86 6.86 0 0 0 1.71 4.29 a 1 1 0 0 1 0 1.42 A 1 1 0 0 1 6 29 Z M 5 23 H 5 Z" stroke-linecap="round"/>
</g>
<g transform="matrix(15.2572 0 0 15.2572 144.8283 366.277)" id="776140">
<path style="stroke: none; stroke-width: 1; stroke-dasharray: none; stroke-linecap: butt; stroke-dashoffset: 0; stroke-linejoin: miter; stroke-miterlimit: 4; is-custom-font: none; font-file-url: none; fill: rgb(204,51,51); fill-rule: nonzero; opacity: 1;" transform=" translate(-8.9971, -23.5002)" d="M 10 27 a 1 1 0 0 1 -0.83 -0.45 C 7.06 23.39 7 21.24 7 21 a 1 1 0 0 1 2 0 a 9.57 9.57 0 0 0 1.83 4.46 a 1 1 0 0 1 -0.28 1.38 A 0.94 0.94 0 0 1 10 27 Z M 9 21 H 9 Z" stroke-linecap="round"/>
</g>
<g transform="matrix(15.2572 0 0 15.2572 556.8174 925.2974)" id="279532">
<path style="stroke: none; stroke-width: 1; stroke-dasharray: none; stroke-linecap: butt; stroke-dashoffset: 0; stroke-linejoin: miter; stroke-miterlimit: 4; is-custom-font: none; font-file-url: none; fill: rgb(204,51,51); fill-rule: nonzero; opacity: 1;" transform=" translate(-36, -60.14)" d="M 63 64 H 9 a 1 1 0 0 1 0 -2 H 62 V 57.28 a 1 1 0 0 1 2 0 V 63 A 1 1 0 0 1 63 64 Z" stroke-linecap="round"/>
</g>
</svg>